<svg width="360" height="407" viewBox="0 0 360 407" fill="none" xmlns="http://www.w3.org/2000/svg">
<g clip-path="url(#clip0_354_36)">
<path d="M244.013 320.47C255.441 309.709 261.333 293.589 255.194 279.953C246.256 293.674 231.542 304.481 214.483 309.853C207.839 311.945 200.198 313.671 196.584 318.949C194.335 322.233 194.172 326.345 195.185 330.063C196.198 333.782 198.284 337.202 200.35 340.576L200.361 341.53C216.533 337.414 232.585 331.231 244.013 320.47Z" fill="#F2F2F2"/>
<path d="M254.85 280.025C252.923 291.9 246.618 303.317 236.978 311.924C234.886 313.871 232.511 315.491 229.935 316.728C227.284 317.903 224.393 318.437 221.498 318.288C218.77 318.201 215.991 317.837 213.287 318.328C211.96 318.561 210.694 319.06 209.565 319.794C208.436 320.527 207.466 321.482 206.713 322.599C204.92 325.237 204.325 328.277 203.862 331.268C203.347 334.589 202.873 338.045 200.687 340.901C200.423 341.248 201.056 341.584 201.321 341.239C205.123 336.269 203.851 329.917 206.417 324.558C207.614 322.057 209.686 319.854 212.784 319.099C215.492 318.439 218.358 318.811 221.119 318.92C223.949 319.1 226.784 318.671 229.434 317.662C232.073 316.544 234.515 315.008 236.664 313.111C241.37 309.089 245.391 304.328 248.57 299.015C252.098 293.195 254.482 286.754 255.593 280.039C255.659 279.628 254.916 279.617 254.85 280.025V280.025Z" fill="white"/>
<path d="M240.282 309.27C242.244 310.487 244.537 311.062 246.842 310.915C249.146 310.768 251.347 309.906 253.139 308.449C253.478 308.157 252.971 307.685 252.632 307.977C250.966 309.337 248.916 310.139 246.77 310.272C244.624 310.406 242.491 309.863 240.67 308.72C240.285 308.474 239.899 309.025 240.282 309.27V309.27Z" fill="white"/>
<path d="M222.874 318.49C222.492 316.416 222.554 314.284 223.055 312.235C223.556 310.186 224.486 308.267 225.782 306.603C226.045 306.256 225.412 305.919 225.149 306.266C223.804 308 222.841 309.999 222.324 312.132C221.808 314.265 221.749 316.483 222.152 318.64C222.231 319.051 222.953 318.898 222.874 318.49Z" fill="white"/>
<path d="M251.157 293.021C250.347 292.732 249.624 292.241 249.057 291.594C248.49 290.947 248.097 290.166 247.916 289.325C247.843 288.914 247.121 289.067 247.194 289.476C247.398 290.404 247.832 291.266 248.457 291.982C249.082 292.697 249.877 293.244 250.769 293.572C250.853 293.614 250.95 293.627 251.043 293.607C251.135 293.588 251.219 293.538 251.279 293.465C251.304 293.429 251.321 293.388 251.328 293.345C251.335 293.301 251.333 293.257 251.321 293.215C251.31 293.173 251.289 293.133 251.261 293.1C251.232 293.066 251.197 293.04 251.157 293.021V293.021Z" fill="white"/>
<path d="M201.002 264.448C201.039 264.706 201.077 264.963 201.11 265.225C201.591 268.687 201.748 272.187 201.578 275.679C201.569 275.949 201.556 276.222 201.539 276.492C201.001 284.986 198.687 293.274 194.745 300.818C193.142 303.898 191.29 306.842 189.208 309.621C186.308 313.499 182.808 317.503 181.587 321.859C181.455 322.31 181.354 322.77 181.286 323.236L199.021 341.468C199.086 341.492 199.145 341.519 199.21 341.544L199.88 342.3C200 342.161 200.121 342.016 200.24 341.877C200.31 341.798 200.376 341.714 200.446 341.634C200.492 341.579 200.537 341.524 200.582 341.477C200.597 341.459 200.612 341.441 200.622 341.426C200.667 341.379 200.702 341.331 200.742 341.288C201.421 340.475 202.094 339.657 202.762 338.834C202.767 338.83 202.767 338.83 202.768 338.823C207.84 332.537 212.352 325.827 215.549 318.736C215.645 318.523 215.746 318.306 215.834 318.084C217.247 314.905 218.365 311.604 219.174 308.221C219.606 306.384 219.931 304.523 220.147 302.649C220.695 297.81 220.362 292.912 219.167 288.192C216.779 278.734 210.937 270.045 201.711 264.84C201.475 264.707 201.243 264.577 201.002 264.448Z" fill="#F2F2F2"/>
<path d="M200.775 264.684C207.465 275.174 210.341 287.589 208.607 299.505C208.293 302.128 207.516 304.674 206.312 307.025C204.971 309.388 203.017 311.343 200.655 312.685C198.417 314.042 195.947 315.206 194.128 317.013C193.233 317.893 192.559 318.972 192.161 320.163C191.763 321.353 191.652 322.621 191.838 323.862C192.234 326.906 193.865 329.645 195.567 332.276C197.457 335.196 199.474 338.204 199.708 341.628C199.736 342.043 200.475 341.981 200.447 341.566C200.04 335.608 194.623 331.203 192.959 325.581C192.182 322.958 192.31 320.115 194.26 317.892C195.965 315.947 198.511 314.745 200.791 313.388C203.122 312.1 205.102 310.262 206.559 308.033C207.895 305.75 208.784 303.233 209.179 300.617C210.147 294.821 210.059 288.897 208.919 283.133C207.621 276.436 205.062 270.047 201.378 264.307C201.147 263.944 200.546 264.324 200.775 264.684V264.684Z" fill="white"/>
<path d="M209.406 295.657C214.263 295.613 218.408 292.446 219.103 288.275C219.171 287.864 218.439 287.752 218.371 288.164C217.72 292.072 213.875 294.974 209.335 295.015C208.857 295.019 208.931 295.662 209.406 295.657V295.657Z" fill="white"/>
<path d="M201.895 312.126C200.214 310.787 198.824 309.12 197.807 307.227C196.791 305.334 196.169 303.254 195.981 301.114C195.951 300.699 195.212 300.761 195.242 301.176C195.443 303.403 196.094 305.567 197.157 307.535C198.219 309.503 199.67 311.234 201.422 312.624C201.77 312.91 202.24 312.411 201.895 312.126V312.126Z" fill="white"/>
<path d="M206.832 276.994C205.934 277.176 205.007 277.158 204.117 276.941C203.227 276.724 202.396 276.313 201.683 275.738C201.34 275.448 200.87 275.948 201.211 276.236C202.001 276.868 202.92 277.321 203.903 277.562C204.886 277.804 205.909 277.829 206.903 277.636C207.1 277.598 207.256 277.473 207.237 277.284C207.219 277.193 207.167 277.112 207.092 277.058C207.017 277.004 206.923 276.981 206.832 276.994V276.994Z" fill="white"/>
<path d="M159.905 340.987C137.83 356.084 115.883 359.915 98.1049 351.776C75.2912 341.331 61.4715 312.573 60.1895 272.875L61.541 273.002C62.8048 312.147 76.2977 340.443 98.5594 350.635C115.86 358.556 137.334 354.749 159.025 339.915L159.905 340.987Z" fill="#F2F2F2"/>
<path d="M296.32 85.3664C294.147 109.324 287.954 134.586 278.241 158.96C266.23 189.102 249.821 215.651 230.785 235.736L229.729 234.815C248.672 214.826 265.007 188.394 276.968 158.377C287.777 131.251 294.207 103.022 295.569 76.7549L296.919 76.981C296.776 79.7551 296.576 82.5503 296.32 85.3664Z" fill="#F2F2F2"/>
<path d="M237.678 51.318L236.366 51.4618C230.515 28.4638 219.174 12.5311 203.568 5.38569C183.73 -3.69734 159.198 2.40208 134.492 22.5606C109.661 42.8221 87.6792 74.8264 72.5961 112.68L71.3228 112.097C86.4722 74.0783 108.567 41.9193 133.537 21.5452C158.633 1.0681 183.665 -5.07604 204.023 4.24481C220.076 11.5949 231.714 27.8726 237.678 51.318Z" fill="#F2F2F2"/>
<path d="M310.494 251.54C283.758 294.087 251.321 324.486 219.158 337.138L218.508 335.945C250.448 323.38 282.695 293.137 309.309 250.785L310.494 251.54Z" fill="#F2F2F2"/>
<path d="M351.744 156.219C351.304 161.074 350.739 165.989 350.05 170.963L348.709 170.638C353.855 133.517 352.03 99.4811 343.429 72.2032L344.721 71.9869C352.223 95.782 354.607 124.664 351.744 156.219Z" fill="#F2F2F2"/>
<path d="M72.4956 119.338C69.0639 126.569 65.7998 134.061 62.7938 141.605C45.4961 185.015 36.7304 229.348 37.4467 269.814L36.0948 269.67C35.3778 229.053 44.1687 184.567 61.5206 141.022C64.5351 133.457 67.8085 125.944 71.2501 118.693L72.4956 119.338Z" fill="#F2F2F2"/>
<path d="M159.256 370.815C137.181 385.912 115.234 389.743 97.456 381.604C74.6423 371.159 60.8226 342.4 59.5405 302.703L60.892 302.83C62.1559 341.975 75.6488 370.271 97.9105 380.463C115.212 388.384 136.685 384.577 158.376 369.743L159.256 370.815Z" fill="#F2F2F2"/>
<path d="M295.672 115.194C293.498 139.152 287.305 164.413 277.592 188.788C265.581 218.93 249.172 245.478 230.136 265.564L229.08 264.643C248.023 244.654 264.358 218.222 276.319 188.205C287.128 161.079 293.558 132.85 294.92 106.583L296.27 106.809C296.127 109.583 295.928 112.378 295.672 115.194Z" fill="#F2F2F2"/>
<path d="M293.29 82.801L291.978 82.9448C286.127 59.9468 274.786 44.0141 259.18 36.8687C239.341 27.7857 214.81 33.8851 190.104 54.0436C165.273 74.3051 143.291 106.309 128.208 144.163L126.935 143.58C142.084 105.561 164.179 73.4023 189.149 53.0282C214.245 32.5511 239.277 26.407 259.635 35.7278C275.688 43.0779 287.326 59.3556 293.29 82.801Z" fill="#F2F2F2"/>
<path d="M308.742 291.851C282.006 334.397 249.569 364.797 217.406 377.449L216.756 376.256C248.696 363.691 280.943 333.447 307.557 291.095L308.742 291.851Z" fill="#F2F2F2"/>
<path d="M351.095 186.046C350.655 190.902 350.09 195.817 349.401 200.791L348.06 200.466C353.206 163.345 351.381 129.309 342.78 102.031L344.072 101.815C351.574 125.61 353.959 154.492 351.095 186.046Z" fill="#F2F2F2"/>
<path d="M71.8467 149.166C68.415 156.397 65.1509 163.889 62.1449 171.432C44.8472 214.843 36.0815 259.176 36.7978 299.642L35.4459 299.498C34.7288 258.881 43.5198 214.395 60.8717 170.85C63.8862 163.285 67.1596 155.772 70.6012 148.52L71.8467 149.166Z" fill="#F2F2F2"/>
<path d="M330.476 128.234C331.971 125.987 331.086 122.771 328.5 121.05C325.915 119.33 322.607 119.756 321.113 122.003C319.618 124.25 320.503 127.466 323.088 129.187C325.674 130.908 328.982 130.481 330.476 128.234Z" fill="#FD6584"/>
<path d="M158.703 156.877C161.832 152.08 166.941 148.311 172.631 147.992C178.322 147.674 185.16 152.521 187.968 157.508C193.106 166.631 190.876 175.403 183.801 181.748C182.84 181.422 179.485 180.437 178.509 180.122L177.889 179.004L177.125 179.684C168.381 180.556 159.934 179.584 153.353 173.067C154.171 167.396 155.573 161.673 158.703 156.877Z" fill="#2F2E41"/>
<path d="M182.148 220.91L181.114 230.499L181.722 243.074L153.876 239.765L151.259 220.91L154.593 220.942L182.148 220.91Z" fill="#FFB6B6"/>
<path d="M170.714 179.469C177.1 179.469 182.277 174.291 182.277 167.903C182.277 161.515 177.1 156.337 170.714 156.337C164.328 156.337 159.151 161.515 159.151 167.903C159.151 174.291 164.328 179.469 170.714 179.469Z" fill="#FFB7B7"/>
<path d="M157.901 189.393L164.518 185.422L177.752 184.098L189.449 190.056L189.332 208.256L181.911 227.132L150.812 223.161L149.63 216.503C149.63 216.503 141.028 204.946 150.292 198.328L157.901 189.393Z" fill="#DC2F02"/>
<path d="M166.391 150.338C168.897 149.635 171.545 149.619 174.059 150.29C176.573 150.962 178.86 152.296 180.682 154.155C182.504 156.013 183.793 158.327 184.415 160.855C185.036 163.382 184.968 166.03 184.216 168.522C177.174 169.084 170.213 168.426 164.725 163.442L164.237 159.167L162.235 162.745C160.215 162.177 158.193 161.605 156.167 161.03C156.787 158.508 158.057 156.194 159.851 154.318C161.645 152.441 163.9 151.069 166.391 150.338V150.338Z" fill="#2F2E41"/>
<path d="M118.187 135.35C117.874 136.019 117.711 136.748 117.709 137.487C117.708 138.225 117.869 138.955 118.18 139.625C118.491 140.295 118.946 140.888 119.511 141.364C120.076 141.839 120.739 142.184 121.452 142.375L142.996 183.035L151.691 176.322L127.781 138.466C128.022 137.246 127.809 135.98 127.18 134.907C126.55 133.835 125.55 133.03 124.367 132.646C123.185 132.262 121.903 132.325 120.764 132.824C119.625 133.322 118.708 134.221 118.187 135.35H118.187Z" fill="#FFB6B6"/>
<path d="M153.527 196.774C153.527 196.774 151.531 198.545 148.692 193.655C146.419 189.74 135.084 172.209 133.479 166.132C132.598 166.157 131.735 165.888 131.024 165.368C130.313 164.848 129.796 164.106 129.553 163.259L141.728 158.532C144.375 159.856 143.64 161.69 142.969 162.64L147.504 169.443L162.587 186.374L154.993 195.519L153.527 196.774Z" fill="#DC2F02"/>
<path d="M273.471 40.375C266.997 33.9923 258.352 30.4696 249.683 28.2159C239.869 25.6648 229.721 24.162 219.695 22.7202C209.247 21.2177 198.757 20.0587 188.226 19.2433C177.709 18.4323 167.173 17.968 156.618 17.8505C147.212 17.7451 137.744 17.7419 128.384 18.7856C119.569 19.7687 110.775 21.7415 102.827 25.7915C95.7525 29.319 89.8089 34.7606 85.6716 41.498C81.868 47.7692 79.6065 55.2867 80.3929 62.6584C80.7617 66.2883 81.8916 69.7997 83.7089 72.9632C85.8391 76.4592 88.5539 79.5632 91.7347 82.1399C98.3016 87.6864 106.153 91.741 111.802 98.3331C113.294 100.06 114.597 101.941 115.689 103.945C116.51 105.465 117.432 106.773 118.958 107.659C120.32 108.437 121.882 108.793 123.446 108.684C125.01 108.575 126.507 108.005 127.748 107.046C129.508 105.665 130.772 103.535 132.134 101.782L136.882 95.6698C137.225 95.1218 137.623 94.6098 138.069 94.1417C138.389 93.8771 137.861 94.1102 137.966 94.0443C138.024 94.008 138.125 94.0281 138.188 94.0023C138.504 93.9116 138.828 93.8514 139.156 93.8224C142.623 93.1847 146.098 92.5883 149.58 92.0332C162.437 89.9581 175.378 88.2464 188.372 87.3238C195.07 86.7888 201.792 86.6284 208.508 86.8434C217.192 87.1989 225.756 88.9236 234.408 89.6676C243.723 90.4687 253.508 90.3581 262.285 86.7653C269.311 83.8896 275.834 79.0516 279.638 72.3694C281.443 69.2091 282.512 65.6823 282.767 62.0515C283.231 53.816 279.227 46.05 273.471 40.375Z" fill="#E6E6E6"/>
<path d="M151.44 24.6002C149.784 24.6002 148.128 24.609 146.474 24.6266C130.586 24.7952 114.167 26.0801 101.707 34.2714C90.6473 41.5422 82.8961 57.7378 89.4558 69.3526C92.468 74.6859 97.9255 78.5681 103.703 82.6778C105.968 84.2889 108.31 85.9548 110.555 87.749C115.458 91.6682 120.075 96.928 122.731 102.842L134.398 87.8246L136.602 87.4025C138.723 86.9965 188.843 77.4902 215.535 80.5764C217.99 80.8603 220.472 81.187 222.871 81.5027C233.715 82.9299 243.957 84.277 253.79 82.2878C264.055 80.21 275.327 72.28 275.998 61.6757C276.457 54.4159 271.735 46.4516 263.969 41.3859C256.116 36.264 246.321 34.1493 236.962 32.4221C208.751 27.2227 180.126 24.6046 151.44 24.6002V24.6002Z" fill="white"/>
<path d="M241.98 47.7076H129.314C128.664 47.7076 128.04 47.4493 127.58 46.9895C127.121 46.5296 126.862 45.9059 126.862 45.2556C126.862 44.6053 127.121 43.9816 127.58 43.5218C128.04 43.062 128.664 42.8036 129.314 42.8036H241.98C242.63 42.8036 243.254 43.062 243.713 43.5218C244.173 43.9816 244.431 44.6053 244.431 45.2556C244.431 45.9059 244.173 46.5296 243.713 46.9895C243.254 47.4493 242.63 47.7076 241.98 47.7076V47.7076Z" fill="#DC2F02"/>
<path d="M241.98 62.7582H129.314C128.664 62.7582 128.04 62.4999 127.58 62.0401C127.121 61.5802 126.862 60.9566 126.862 60.3063C126.862 59.6559 127.121 59.0323 127.58 58.5724C128.04 58.1126 128.664 57.8543 129.314 57.8543H241.98C242.63 57.8543 243.254 58.1126 243.713 58.5724C244.173 59.0323 244.431 59.6559 244.431 60.3063C244.431 60.9566 244.173 61.5802 243.713 62.0401C243.254 62.4999 242.63 62.7582 241.98 62.7582V62.7582Z" fill="#DC2F02"/>
<path d="M142.443 77.8085H129.314C128.664 77.8085 128.04 77.5502 127.58 77.0904C127.121 76.6305 126.862 76.0068 126.862 75.3565C126.862 74.7062 127.121 74.0825 127.58 73.6227C128.04 73.1629 128.664 72.9045 129.314 72.9045H142.443C143.093 72.9045 143.717 73.1629 144.177 73.6227C144.636 74.0825 144.895 74.7062 144.895 75.3565C144.895 76.0068 144.636 76.6305 144.177 77.0904C143.717 77.5502 143.093 77.8085 142.443 77.8085Z" fill="#DC2F02"/>
<path d="M122.087 136.623C127.841 136.623 132.506 131.957 132.506 126.201C132.506 120.445 127.841 115.779 122.087 115.779C116.332 115.779 111.667 120.445 111.667 126.201C111.667 131.957 116.332 136.623 122.087 136.623Z" fill="#E6E6E6"/>
<path d="M91.7719 254.358C93.2664 252.111 92.3818 248.895 89.7962 247.174C87.2106 245.453 83.903 245.88 82.4086 248.127C80.9141 250.374 81.7987 253.59 84.3843 255.31C86.9699 257.031 90.2774 256.605 91.7719 254.358Z" fill="#F2F2F2"/>
<path d="M315.325 253.649C316.82 251.402 315.935 248.185 313.349 246.465C310.764 244.744 307.456 245.171 305.962 247.417C304.467 249.664 305.352 252.881 307.938 254.601C310.523 256.322 313.831 255.895 315.325 253.649Z" fill="#E6E6E6"/>
<path d="M230.934 172.546C232.428 170.299 231.544 167.083 228.958 165.362C226.373 163.642 223.065 164.068 221.571 166.315C220.076 168.562 220.961 171.778 223.546 173.499C226.132 175.22 229.44 174.793 230.934 172.546Z" fill="#E6E6E6"/>
<path d="M196.591 395.017H190.503L187.606 371.528H196.591V395.017Z" fill="#FFB6B6"/>
<path d="M199.805 405.568H195.439L194.659 401.445L192.663 405.568H181.084C180.529 405.568 179.988 405.391 179.541 405.062C179.094 404.733 178.764 404.269 178.598 403.739C178.433 403.209 178.442 402.64 178.623 402.115C178.804 401.59 179.148 401.137 179.605 400.822L188.852 394.434V390.265L198.578 390.846L199.805 405.568Z" fill="#2F2E41"/>
<path d="M162.393 395.017H156.305L153.408 371.528H162.393V395.017Z" fill="#FFB6B6"/>
<path d="M165.607 405.568H161.241L160.462 401.445L158.466 405.568H146.886C146.331 405.568 145.79 405.391 145.343 405.062C144.896 404.733 144.566 404.269 144.401 403.739C144.235 403.209 144.244 402.64 144.425 402.115C144.606 401.59 144.95 401.137 145.407 400.822L154.654 394.434V390.265L164.38 390.846L165.607 405.568Z" fill="#2F2E41"/>
<path d="M199.218 374.761H199.151L197.981 336.57C198.738 335.108 199.123 333.481 199.1 331.835C199.077 330.188 198.648 328.573 197.85 327.133L197.682 326.829L198.117 324.814C198.675 322.225 198.419 319.526 197.383 317.088L196.291 281.462C200.193 256.166 181.596 239.668 181.596 239.668H153.737L147.756 260.223C143.802 298.755 144.519 336.303 150.794 372.681L150.623 372.768C150.007 372.98 149.742 373.834 150.032 374.674C150.322 375.514 151.057 376.023 151.673 375.81L166.385 375.298C167.001 375.086 167.266 374.232 166.976 373.392C166.686 372.552 165.951 372.043 165.335 372.256L164.335 372.762L166.468 335.909L166.232 329.177L166.719 321.54L168.975 287.19L177.511 329.431L186.23 375.187C185.99 375.404 185.821 375.69 185.746 376.006C185.671 376.321 185.694 376.653 185.811 376.955C185.928 377.258 186.135 377.518 186.402 377.701C186.67 377.884 186.987 377.981 187.312 377.98H199.218C199.644 377.98 200.054 377.811 200.355 377.509C200.657 377.207 200.827 376.798 200.827 376.371C200.827 375.944 200.657 375.535 200.355 375.233C200.054 374.931 199.644 374.761 199.218 374.761H199.218Z" fill="#2F2E41"/>
<path d="M186.225 267.974C186.854 267.587 187.39 267.066 187.796 266.449C188.202 265.832 188.468 265.134 188.575 264.403C188.681 263.672 188.627 262.926 188.414 262.219C188.202 261.512 187.837 260.859 187.345 260.308L191.612 214.49L180.661 215.336L179.91 260.108C179.039 260.995 178.524 262.172 178.462 263.414C178.401 264.656 178.796 265.877 179.575 266.847C180.353 267.816 181.46 268.467 182.686 268.674C183.912 268.882 185.171 268.633 186.225 267.974V267.974Z" fill="#FFB6B6"/>
<path d="M189.043 190.238C189.043 190.238 191.683 189.852 191.378 195.498C191.133 200.019 192.296 227.882 190.308 233.845C191.058 234.307 191.633 235.005 191.942 235.83C192.252 236.655 192.278 237.559 192.017 238.401L179.243 235.677C177.755 233.119 178.063 230.492 179.145 230.066L179.081 221.89L176.258 194.938L187.13 190.484L189.043 190.238Z" fill="#DC2F02"/>
</g>
<defs>
<clipPath id="clip0_354_36">
<rect width="360" height="407" fill="white"/>
</clipPath>
</defs>
</svg>
